<svg width="23" height="24" viewBox="0 0 23 24" fill="none" xmlns="http://www.w3.org/2000/svg">
<path d="M9.97222 0.0297308C4.47325 0.0297308 0 4.69747 0 10.4355C0 16.1736 4.47325 20.8413 9.97222 20.8413C11.6533 20.8413 13.3058 20.4251 14.7019 19.6224C14.8137 19.7628 14.9377 19.8922 15.0723 20.0089L17.9215 22.9819C18.1846 23.2908 18.5054 23.5404 18.8643 23.7152C19.2231 23.8901 19.6124 23.9865 20.0083 23.9987C20.4042 24.0108 20.7982 23.9384 21.1663 23.7859C21.5344 23.6334 21.8688 23.404 22.1488 23.1118C22.4288 22.8196 22.6487 22.4707 22.7949 22.0866C22.941 21.7025 23.0104 21.2913 22.9987 20.8782C22.9871 20.4651 22.8946 20.0589 22.7271 19.6844C22.5595 19.31 22.3204 18.9752 22.0244 18.7007L19.1752 15.7276C19.0364 15.5827 18.8836 15.4532 18.7193 15.3411C19.4886 13.8843 19.9729 12.1896 19.9729 10.4058C19.9729 4.66774 15.4997 0 10.0007 0L9.97222 0.0297308ZM9.97222 3.00281C13.9326 3.00281 17.0952 6.30294 17.0952 10.4355C17.0952 12.3978 16.4114 14.2113 15.2148 15.5492C15.1863 15.579 15.1578 15.6087 15.1293 15.6384C14.9947 15.7551 14.8707 15.8845 14.7589 16.0249C13.5052 17.2142 11.7957 17.898 9.94373 17.898C5.98333 17.898 2.82071 14.5978 2.82071 10.4653C2.82071 6.33267 5.98333 3.03255 9.94373 3.03255L9.97222 3.00281Z" fill="#1E1E1E"/>
</svg>
