<?xml version="1.0" encoding="UTF-8"?>
<svg version="1.1" xmlns="http://www.w3.org/2000/svg" width="80" height="80">
<path d="M0 0 C2 1 2 1 3 3 C3.28783913 5.7566132 3.18026547 8.20588515 3 11 C2.67 11.33 2.34 11.66 2 12 C2.598125 12.20625 3.19625 12.4125 3.8125 12.625 C7.03921042 14.65321798 7.64859622 16.40649449 9 20 C9.35829597 23.96650843 9.28304093 27.89657765 9.1875 31.875 C9.16719727 33.47988281 9.16719727 33.47988281 9.14648438 35.1171875 C9.11128624 37.74531511 9.06204693 40.37239194 9 43 C6.525 43.495 6.525 43.495 4 44 C4.01160156 45.07121094 4.02320313 46.14242187 4.03515625 47.24609375 C4.04453299 48.64322743 4.05363331 50.04036299 4.0625 51.4375 C4.07087891 52.14455078 4.07925781 52.85160156 4.08789062 53.58007812 C4.09653588 55.38693559 4.05220011 57.19387603 4 59 C3 60 3 60 0.125 60.0625 C-0.90625 60.041875 -1.9375 60.02125 -3 60 C-3.99 60 -4.98 60 -6 60 C-11 60 -16 60 -21 60 C-22.03125 60.020625 -23.0625 60.04125 -24.125 60.0625 C-27 60 -27 60 -28 59 C-28.084035 57.64276956 -28.1082115 56.28170176 -28.10546875 54.921875 C-28.12029297 54.09042969 -28.13511719 53.25898437 -28.15039062 52.40234375 C-28.17490931 50.64990336 -28.18046696 48.89708357 -28.16601562 47.14453125 C-28.17398735 42.40857609 -28.17398735 42.40857609 -30.36938477 38.40722656 C-31.88125554 37.22965792 -33.43894182 36.11153881 -35 35 C-35.88865006 29.07566628 -34.70847327 23.37236261 -32 18 C-28.76375324 15.84250216 -27.65605934 15.71639512 -23.89453125 15.5859375 C-22.42016602 15.52792969 -22.42016602 15.52792969 -20.91601562 15.46875 C-19.89185547 15.4378125 -18.86769531 15.406875 -17.8125 15.375 C-16.25885742 15.31699219 -16.25885742 15.31699219 -14.67382812 15.2578125 C-12.11606378 15.16351704 -9.55830713 15.07791798 -7 15 C-7.65097656 14.42378906 -8.30195312 13.84757812 -8.97265625 13.25390625 C-11.15117706 10.8319284 -11.52882253 10.09725958 -11.4375 6.9375 C-11 3 -11 3 -10 1 C-6.73794446 -0.63102777 -3.56444611 -0.51981506 0 0 Z M-8 4 C-8.16666667 7 -8.16666667 7 -8 10 C-6.88163776 11.34404775 -6.88163776 11.34404775 -4 11.125 C-1.11836224 11.34404775 -1.11836224 11.34404775 0 10 C0.16666667 7 0.16666667 7 0 4 C-1.11836224 2.65595225 -1.11836224 2.65595225 -4 2.875 C-6.88163776 2.65595225 -6.88163776 2.65595225 -8 4 Z M-3 17 C-4.6408145 17.11346245 -6.2852866 17.17789792 -7.9296875 17.2109375 C-9.37021484 17.25347656 -9.37021484 17.25347656 -10.83984375 17.296875 C-12.85528732 17.34875257 -14.87093993 17.39308451 -16.88671875 17.4296875 C-23.9819675 17.54525967 -23.9819675 17.54525967 -30 21 C-31.70711993 25.30844553 -32.63006313 29.37953703 -32 34 C-30.2322188 35.95158486 -30.2322188 35.95158486 -28 37 C-27.34 37 -26.68 37 -26 37 C-26 43.27 -26 49.54 -26 56 C-24.68 56 -23.36 56 -22 56 C-22 51.38 -22 46.76 -22 42 C-20.35 42 -18.7 42 -17 42 C-17 46.62 -17 51.24 -17 56 C-15.68 56 -14.36 56 -13 56 C-13 44.45 -13 32.9 -13 21 C-8.545 20.505 -8.545 20.505 -4 20 C-0.08036881 18.5607022 -0.08036881 18.5607022 3 17 C0 15.66666667 0 15.66666667 -3 17 Z M0.375 20.9375 C-3.46939192 22.14777153 -6.99963476 22.54222625 -11 23 C-11.02468857 27.5206665 -11.04285449 32.0412939 -11.05493164 36.56201172 C-11.05996552 38.10043013 -11.06679308 39.63884375 -11.07543945 41.17724609 C-11.08754639 43.38640526 -11.09323769 45.59550126 -11.09765625 47.8046875 C-11.10281754 48.49432587 -11.10797882 49.18396423 -11.11329651 49.89450073 C-11.16318164 53.57059655 -11.16318164 53.57059655 -10 57 C-8.515 56.505 -8.515 56.505 -7 56 C-7 51.38 -7 46.76 -7 42 C-5.35 42 -3.7 42 -2 42 C-2.01160156 42.91523437 -2.02320313 43.83046875 -2.03515625 44.7734375 C-2.04417969 45.96195313 -2.05320312 47.15046875 -2.0625 48.375 C-2.07410156 49.55835937 -2.08570313 50.74171875 -2.09765625 51.9609375 C-2.21466593 54.91921521 -2.21466593 54.91921521 -1 57 C0.485 56.505 0.485 56.505 2 56 C2 50.39 2 44.78 2 39 C3.32 39.66 4.64 40.32 6 41 C8.02692129 38.97307871 7.18507217 34.96251392 7.1875 32.1875 C7.20586914 31.09985352 7.20586914 31.09985352 7.22460938 29.99023438 C7.23509474 26.17006722 7.14860342 23.23564389 5 20 C2.84934932 19.88788787 2.84934932 19.88788787 0.375 20.9375 Z " fill="#000000" transform="translate(51,10)"/>
<path d="M0 0 C2 1 2 1 3 3 C3.51981506 6.56444611 3.63102777 9.73794446 2 13 C-1.26205554 14.63102777 -4.43555389 14.51981506 -8 14 C-10 13 -10 13 -11 11 C-11.51981506 7.43555389 -11.63102777 4.26205554 -10 1 C-6.73794446 -0.63102777 -3.56444611 -0.51981506 0 0 Z M-8 4 C-8.16666667 7 -8.16666667 7 -8 10 C-6.88163776 11.34404775 -6.88163776 11.34404775 -4 11.125 C-1.11836224 11.34404775 -1.11836224 11.34404775 0 10 C0.16666667 7 0.16666667 7 0 4 C-1.11836224 2.65595225 -1.11836224 2.65595225 -4 2.875 C-6.88163776 2.65595225 -6.88163776 2.65595225 -8 4 Z " fill="#000000" transform="translate(35,10)"/>
<path d="M0 0 C0.66 0 1.32 0 2 0 C2 0.66 2 1.32 2 2 C1.34 2 0.68 2 0 2 C0 1.34 0 0.68 0 0 Z " fill="#000000" transform="translate(53,45)"/>
<path d="M0 0 C0.66 0 1.32 0 2 0 C2 0.66 2 1.32 2 2 C1.34 2 0.68 2 0 2 C0 1.34 0 0.68 0 0 Z " fill="#000000" transform="translate(23,43)"/>
<path d="M0 0 C0.66 0 1.32 0 2 0 C2 0.66 2 1.32 2 2 C1.34 2 0.68 2 0 2 C0 1.34 0 0.68 0 0 Z " fill="#000000" transform="translate(53,41)"/>
<path d="M0 0 C0.66 0 1.32 0 2 0 C2 0.66 2 1.32 2 2 C1.34 2 0.68 2 0 2 C0 1.34 0 0.68 0 0 Z " fill="#000000" transform="translate(23,39)"/>
<path d="M0 0 C0.66 0 1.32 0 2 0 C2 0.66 2 1.32 2 2 C1.34 2 0.68 2 0 2 C0 1.34 0 0.68 0 0 Z " fill="#000000" transform="translate(53,37)"/>
<path d="M0 0 C0.66 0 1.32 0 2 0 C2 0.66 2 1.32 2 2 C1.34 2 0.68 2 0 2 C0 1.34 0 0.68 0 0 Z " fill="#000000" transform="translate(23,35)"/>
</svg>
