<svg width="50" height="50" viewBox="0 0 50 50" fill="none" xmlns="http://www.w3.org/2000/svg">
<circle cx="25" cy="25" r="23.5" fill="#F5F5F5" stroke="#673AB7" stroke-width="3"/>
<path d="M36.9346 32.185L34.9458 30.25V22.75C34.9458 18.145 32.4175 14.29 28.0083 13.27V12.25C28.0083 11.005 26.9754 10 25.6958 10C24.4162 10 23.3833 11.005 23.3833 12.25V13.27C18.9587 14.29 16.4458 18.13 16.4458 22.75V30.25L14.4571 32.185C13.4858 33.13 14.1642 34.75 15.5362 34.75H35.84C37.2275 34.75 37.9058 33.13 36.9346 32.185ZM31.8625 31.75H19.5292V22.75C19.5292 19.03 21.8571 16 25.6958 16C29.5346 16 31.8625 19.03 31.8625 22.75V31.75ZM25.6958 39.25C27.3917 39.25 28.7792 37.9 28.7792 36.25H22.6125C22.6125 37.9 23.9846 39.25 25.6958 39.25Z" fill="#673AB7"/>
</svg>
